<svg width="48" height="48" viewBox="0 0 48 48" fill="none" xmlns="http://www.w3.org/2000/svg">
<path fill-rule="evenodd" clip-rule="evenodd" d="M16.8361 6.5C17.3961 5.32 18.6041 4.5 20.0001 4.5H28.0001C29.3961 4.5 30.6021 5.32 31.1641 6.5C32.5301 6.512 33.5961 6.574 34.5481 6.946C35.6845 7.39054 36.6729 8.14602 37.4001 9.126C38.1341 10.114 38.4801 11.38 38.9521 13.122L40.4361 18.566L40.9961 20.248L41.0441 20.308C42.8461 22.616 41.9881 26.048 40.2721 32.91C39.1801 37.276 38.6361 39.458 37.0081 40.73C35.3801 42 33.1301 42 28.6301 42H19.3701C14.8701 42 12.6201 42 10.9921 40.73C9.36406 39.458 8.81807 37.276 7.72807 32.91C6.01207 26.048 5.15407 22.616 6.95607 20.308L7.00407 20.248L7.56407 18.566L9.04807 13.122C9.52207 11.38 9.86807 10.112 10.6001 9.124C11.3275 8.14476 12.3159 7.38999 13.4521 6.946C14.4041 6.574 15.4681 6.51 16.8361 6.5ZM16.8401 9.506C15.5161 9.52 14.9841 9.57 14.5441 9.742C13.932 9.98136 13.3997 10.3882 13.0081 10.916C12.6561 11.39 12.4481 12.052 11.8681 14.186L10.7281 18.364C12.7681 18 15.5561 18 19.3681 18H28.6301C32.4441 18 35.2301 18 37.2701 18.36L36.1321 14.182C35.5521 12.048 35.3441 11.386 34.9921 10.912C34.6004 10.3842 34.0681 9.97736 33.4561 9.738C33.0161 9.566 32.4841 9.516 31.1601 9.502C30.8761 10.0997 30.4285 10.6046 29.8692 10.9583C29.3099 11.3119 28.6618 11.4997 28.0001 11.5H20.0001C19.3386 11.4999 18.6906 11.3124 18.1313 10.9591C17.572 10.6059 17.1243 10.1033 16.8401 9.506Z" fill="white"/>
</svg>
