<svg width="48" height="48" viewBox="0 0 48 48" fill="none" xmlns="http://www.w3.org/2000/svg">
<path d="M22.8 36.3221L37.592 21.5301C35.1036 20.4905 32.8435 18.9724 30.94 17.0621C29.0287 15.1581 27.51 12.8974 26.47 10.4081L11.678 25.2001C10.524 26.3541 9.94604 26.9321 9.45004 27.5681C8.86482 28.319 8.36257 29.1311 7.95204 29.9901C7.60604 30.7181 7.34804 31.4941 6.83204 33.0421L4.10804 41.2081C3.98267 41.5819 3.96406 41.9834 4.05433 42.3673C4.14459 42.7512 4.34013 43.1023 4.61898 43.3811C4.89783 43.66 5.24893 43.8555 5.63281 43.9458C6.0167 44.036 6.41815 44.0174 6.79204 43.8921L14.958 41.1681C16.508 40.6521 17.282 40.3941 18.01 40.0481C18.8727 39.6374 19.68 39.1381 20.432 38.5501C21.068 38.0541 21.646 37.4761 22.8 36.3221ZM41.696 17.4261C43.1709 15.9512 43.9995 13.9508 43.9995 11.8651C43.9995 9.77927 43.1709 7.77892 41.696 6.30405C40.2212 4.82918 38.2208 4.00061 36.135 4.00061C34.0493 4.00061 32.0489 4.82918 30.574 6.30405L28.8 8.07805L28.876 8.30005C29.75 10.8016 31.1806 13.072 33.06 14.9401C34.9839 16.8757 37.3338 18.3345 39.922 19.2001L41.696 17.4261Z" fill="black"/>
</svg>
