<svg width="48" height="48" viewBox="0 0 48 48" fill="none" xmlns="http://www.w3.org/2000/svg">
<path d="M40 12C40.5097 12.0006 41 12.1958 41.3707 12.5457C41.7414 12.8956 41.9644 13.3739 41.9943 13.8828C42.0242 14.3917 41.8586 14.8928 41.5315 15.2837C41.2043 15.6746 40.7402 15.9258 40.234 15.986L40 16H39.838L38 38C38.0001 39.5304 37.4153 41.003 36.3654 42.1165C35.3155 43.23 33.8798 43.9002 32.352 43.99L32 44H16C12.804 44 10.192 41.502 10.016 38.5L10.006 38.166L8.15998 16H7.99998C7.49022 15.9994 6.99992 15.8042 6.62924 15.4543C6.25857 15.1044 6.03551 14.6261 6.00564 14.1172C5.97576 13.6083 6.14133 13.1072 6.46851 12.7163C6.79569 12.3254 7.25979 12.0742 7.76598 12.014L7.99998 12H40ZM28 4C29.0608 4 30.0783 4.42143 30.8284 5.17157C31.5786 5.92172 32 6.93913 32 8C31.9994 8.50976 31.8042 9.00006 31.4543 9.37074C31.1043 9.74141 30.6261 9.96447 30.1172 9.99434C29.6083 10.0242 29.1072 9.85865 28.7163 9.53147C28.3254 9.20429 28.0742 8.74019 28.014 8.234L28 8H20L19.986 8.234C19.9258 8.74019 19.6746 9.20429 19.2836 9.53147C18.8927 9.85865 18.3917 10.0242 17.8828 9.99434C17.3739 9.96447 16.8956 9.74141 16.5457 9.37074C16.1957 9.00006 16.0005 8.50976 16 8C15.9997 6.99085 16.3808 6.01887 17.067 5.2789C17.7532 4.53894 18.6937 4.08569 19.7 4.01L20 4H28Z" fill="black"/>
</svg>
